<?xml version="1.0" standalone="no"?>
<!DOCTYPE svg PUBLIC "-//W3C//DTD SVG 20010904//EN"
 "http://www.w3.org/TR/2001/REC-SVG-20010904/DTD/svg10.dtd">
<svg version="1.0" xmlns="http://www.w3.org/2000/svg"
 width="1080.000000pt" height="1080.000000pt" viewBox="0 0 1080.000000 1080.000000"
 preserveAspectRatio="xMidYMid meet">
<metadata>
Created by potrace 1.14, written by Peter Selinger 2001-2017
</metadata>
<g transform="translate(0.000000,1080.000000) scale(0.100000,-0.100000)"
fill="#000000" stroke="none">
<path d="M0 5400 l0 -5400 5400 0 5400 0 0 5400 0 5400 -5400 0 -5400 0 0
-5400z m4193 2257 c-27 -34 -281 -332 -407 -476 -150 -173 -469 -489 -596
-590 -126 -102 -276 -202 -400 -267 l-91 -49 25 -22 c57 -49 215 -82 391 -82
l50 0 89 104 c125 147 427 441 576 561 262 211 506 351 695 400 84 21 116 25
195 21 94 -5 170 -21 170 -36 0 -4 -48 -48 -107 -97 -60 -49 -247 -226 -418
-395 -411 -404 -568 -528 -774 -605 l-83 -32 38 -25 c24 -17 80 -36 152 -53
l114 -26 26 24 c312 282 593 505 801 637 120 77 332 176 431 203 68 18 111 23
215 23 72 0 143 -4 158 -8 28 -8 26 -9 -72 -86 -55 -43 -124 -99 -153 -123
-29 -25 -125 -105 -213 -180 -212 -178 -373 -304 -487 -379 -98 -65 -247 -142
-310 -161 -21 -6 -38 -15 -38 -20 0 -4 15 -24 33 -44 27 -30 54 -43 160 -78
l128 -42 162 161 c395 391 723 586 1052 626 91 12 205 5 205 -11 0 -11 -289
-275 -427 -390 -217 -181 -431 -329 -602 -415 -97 -48 -111 -58 -100 -71 18
-22 60 -42 137 -66 37 -11 84 -29 105 -39 l37 -19 113 93 c491 408 884 603
1144 566 36 -5 72 -13 80 -17 10 -6 -22 -35 -119 -107 -73 -55 -173 -131 -223
-171 -322 -254 -521 -382 -682 -439 -29 -11 -53 -22 -53 -25 0 -16 44 -43 130
-80 51 -22 104 -47 117 -56 16 -10 28 -12 36 -6 555 452 818 601 1067 605 88
1 160 -8 160 -21 0 -4 -12 -15 -28 -24 -15 -9 -111 -76 -212 -149 -281 -202
-563 -394 -678 -461 -56 -33 -104 -64 -107 -68 -11 -18 87 -70 179 -96 l49
-13 196 143 c108 79 235 168 283 199 112 73 285 159 370 185 92 29 228 46 296
37 l56 -7 -25 -19 c-82 -67 -420 -316 -504 -373 -147 -100 -295 -191 -388
-237 -45 -23 -84 -44 -87 -46 -13 -13 84 -81 147 -103 l68 -23 70 45 c39 25
137 91 218 146 292 202 452 285 611 319 80 16 200 10 193 -10 -4 -15 -145
-137 -254 -222 -166 -129 -421 -287 -560 -345 -84 -35 -71 -64 52 -119 56 -26
74 -30 93 -22 12 6 113 71 225 145 326 216 458 284 607 313 62 13 86 13 133 3
31 -6 57 -15 57 -20 0 -4 -35 -37 -77 -72 -183 -151 -360 -268 -585 -387 -76
-40 -138 -76 -138 -81 0 -13 101 -59 146 -66 89 -13 208 35 389 160 61 41 139
95 175 120 164 112 297 161 402 149 27 -3 51 -9 53 -13 14 -23 -219 -199 -499
-380 -207 -133 -208 -134 -186 -152 32 -26 96 -40 143 -32 85 14 174 65 372
213 61 45 145 99 189 121 67 34 88 40 143 40 38 0 76 -6 94 -15 l29 -16 -52
-42 c-83 -67 -210 -154 -373 -256 -189 -119 -184 -114 -151 -136 37 -24 125
-16 199 18 33 15 135 76 227 137 92 61 193 122 223 135 76 35 156 51 197 39
l33 -9 -52 -57 c-81 -89 -231 -192 -449 -308 -59 -31 -62 -34 -46 -51 23 -26
79 -42 117 -34 55 13 147 64 287 162 176 124 203 139 282 160 56 15 71 15 109
4 l44 -13 -40 -35 c-54 -46 -283 -197 -386 -255 l-84 -47 40 -17 c52 -21 126
-14 200 20 30 14 114 64 187 112 72 48 161 100 196 117 68 32 162 48 162 28 0
-14 -96 -85 -214 -158 -87 -54 -198 -137 -204 -153 -4 -10 34 -20 75 -20 53 0
121 33 268 129 150 98 220 128 279 117 20 -4 36 -11 36 -16 0 -15 -64 -62
-167 -124 -108 -66 -183 -122 -183 -138 0 -6 23 -9 63 -6 72 5 144 37 282 124
101 64 229 128 246 122 24 -8 -45 -69 -136 -119 -92 -51 -145 -93 -132 -105 3
-3 21 -9 39 -13 53 -12 109 10 231 93 114 76 187 114 187 97 0 -17 -53 -72
-122 -128 -39 -30 -66 -59 -61 -64 15 -15 94 11 205 66 59 30 108 52 108 47
-1 -4 -21 -23 -45 -42 -25 -19 -45 -39 -45 -44 0 -13 108 2 133 19 26 16 87
30 175 40 53 6 62 5 62 -9 0 -30 -47 -48 -151 -56 -91 -7 -104 -11 -130 -36
-33 -31 -29 -39 27 -59 57 -21 17 -18 -78 5 -85 20 -212 26 -237 11 -25 -16
37 -67 111 -91 144 -46 187 -117 46 -76 -29 8 -99 43 -156 76 -57 34 -122 68
-144 76 -60 21 -138 17 -138 -7 0 -22 68 -81 142 -123 83 -47 115 -71 153
-116 l20 -23 -56 6 c-70 7 -106 25 -239 121 -148 107 -213 138 -280 134 l-54
-3 107 -125 c59 -69 125 -151 148 -182 40 -57 40 -58 16 -58 -45 0 -120 64
-242 205 -133 154 -199 205 -266 205 -21 0 -40 -3 -42 -7 -9 -14 67 -155 166
-311 54 -84 100 -159 104 -167 17 -47 -115 21 -171 87 -21 24 -76 102 -123
173 -97 149 -151 209 -208 236 -58 27 -91 25 -99 -6 -14 -54 14 -123 107 -266
94 -144 117 -189 126 -250 7 -43 6 -49 -9 -49 -34 0 -114 65 -155 126 -23 33
-56 96 -74 140 -117 284 -138 323 -194 364 -23 18 -49 25 -93 28 -98 6 -100 2
-53 -103 22 -50 58 -151 80 -225 22 -74 54 -177 71 -228 16 -51 27 -96 24
-100 -12 -11 -95 39 -132 81 -51 55 -86 137 -140 322 -25 88 -55 179 -66 202
-38 81 -100 123 -180 123 -76 0 -77 -2 -15 -156 31 -77 72 -195 90 -264 40
-148 73 -317 64 -326 -12 -12 -56 14 -108 63 -80 75 -111 148 -164 393 -40
189 -66 261 -113 312 -42 46 -76 66 -137 77 -35 6 -45 5 -45 -5 0 -7 13 -66
30 -131 16 -65 38 -161 49 -213 25 -113 83 -481 78 -487 -7 -6 -100 71 -132
108 -15 19 -46 72 -68 119 -39 83 -51 133 -103 420 -29 168 -75 257 -156 304
-43 25 -135 53 -144 44 -2 -3 5 -27 16 -54 32 -74 69 -207 85 -309 14 -86 41
-523 33 -546 -6 -18 -95 58 -138 118 -67 94 -101 224 -121 463 -20 252 -50
349 -129 428 -46 46 -77 65 -141 87 -27 10 -39 11 -39 3 0 -6 9 -63 20 -127
50 -295 104 -901 80 -901 -15 0 -115 117 -149 174 -70 118 -120 324 -141 581
-28 349 -30 366 -64 402 -17 18 -66 50 -108 72 -90 46 -85 52 -68 -84 22 -179
31 -319 31 -475 1 -178 -10 -283 -43 -425 l-21 -89 -62 124 c-74 148 -118 268
-139 380 -20 104 -20 166 0 315 9 72 14 164 12 230 -4 127 -21 169 -93 239
-43 42 -120 85 -131 73 -4 -3 -1 -82 5 -175 14 -212 14 -389 1 -563 -16 -204
-55 -425 -75 -423 -6 1 -36 51 -68 112 -129 247 -140 398 -82 1105 5 56 4 58
-28 78 -68 42 -194 98 -236 105 -41 7 -44 6 -37 -12 16 -41 46 -163 62 -249
13 -70 18 -193 25 -550 4 -253 11 -476 14 -495 6 -35 5 -34 -67 41 -129 134
-211 315 -244 539 -14 95 -15 160 -10 380 3 146 9 306 12 355 l6 90 -54 29
c-224 122 -238 124 -238 25 0 -23 18 -87 44 -152 54 -138 59 -175 47 -310 -10
-106 -6 -175 28 -497 12 -108 31 -392 31 -459 l0 -45 -45 44 c-104 102 -230
313 -286 477 -70 206 -94 405 -105 855 l-6 246 -67 30 c-94 42 -311 93 -311
73 0 -5 13 -39 29 -75 48 -105 80 -202 117 -348 62 -245 85 -448 104 -908 6
-135 13 -269 16 -297 3 -29 1 -53 -3 -53 -17 0 -179 174 -220 235 -161 239
-225 496 -288 1160 -25 252 -55 347 -130 414 -42 37 -68 48 -140 62 -56 11
-175 2 -175 -13 0 -5 13 -28 29 -51 54 -79 129 -232 165 -336 75 -216 97 -339
126 -703 11 -139 25 -293 30 -343 12 -100 54 -318 70 -360 15 -38 13 -58 -4
-48 -47 26 -199 172 -265 253 -203 252 -316 547 -365 950 -19 153 -36 433 -36
597 0 142 6 134 -111 158 -65 14 -389 39 -397 31 -2 -2 10 -23 27 -47 60 -91
161 -289 215 -424 87 -219 164 -507 210 -785 14 -86 116 -768 116 -778 0 -2
-17 8 -37 24 -294 218 -545 591 -675 999 -47 150 -112 441 -149 670 -22 138
-46 279 -52 315 l-12 65 -55 7 c-84 10 -613 8 -820 -2 -282 -15 -828 -23 -892
-13 l-56 8 -121 139 c-67 77 -121 145 -121 152 0 7 19 18 43 25 61 16 791 6
1012 -15 94 -8 247 -22 340 -31 94 -9 256 -18 360 -22 l190 -6 95 119 c252
315 551 619 820 833 358 286 710 449 968 451 l93 0 -18 -23z m-1306 -4079
c192 -91 190 -372 -2 -462 -176 -84 -365 38 -365 234 0 77 22 130 71 178 82
81 193 100 296 50z"/>
</g>
</svg>
