<?xml version="1.0" standalone="no"?>
<!DOCTYPE svg PUBLIC "-//W3C//DTD SVG 20010904//EN"
 "http://www.w3.org/TR/2001/REC-SVG-20010904/DTD/svg10.dtd">
<svg version="1.0" xmlns="http://www.w3.org/2000/svg"
 width="1024.000000pt" height="1024.000000pt" viewBox="0 0 1024.000000 1024.000000"
 preserveAspectRatio="xMidYMid meet">
<metadata>
Created by potrace 1.14, written by Peter Selinger 2001-2017
</metadata>
<g transform="translate(0.000000,1024.000000) scale(0.100000,-0.100000)"
fill="#000000" stroke="none">
<path d="M3472 7978 c0 -629 -1 -1159 -1 -1178 l-1 -35 -1175 1 -1175 1 2
-236 3 -235 233 0 232 0 0 -236 0 -235 235 1 235 1 2 -236 3 -236 233 0 232 0
0 -235 0 -235 -235 0 -235 0 0 -235 0 -236 -222 1 c-123 1 -229 -1 -236 -3 -9
-3 -12 -59 -12 -236 l0 -232 -235 0 -235 1 0 -236 0 -236 1175 1 1175 1 1 -30
c0 -16 1 -546 1 -1177 l1 -1148 236 0 236 0 0 235 -1 235 235 2 235 3 1 230 0
230 231 3 c210 2 232 4 236 20 2 9 4 115 3 234 l0 218 235 0 235 0 0 -232 0
-233 235 -5 235 -5 1 -220 c1 -121 2 -226 3 -232 1 -10 55 -13 234 -13 l233 0
0 -232 -1 -233 236 -3 236 -2 0 1170 c0 644 3 1173 6 1177 4 3 533 6 1177 6
l1170 0 0 236 0 236 -232 0 -233 0 -3 230 c-1 126 -6 232 -12 235 -5 3 -110 5
-234 5 l-226 -1 0 235 0 236 -235 0 -235 0 0 235 0 236 233 -1 232 0 5 235 5
235 215 1 c118 1 223 2 233 3 16 1 17 19 17 234 l0 233 232 0 233 -1 3 236 2
236 -1175 -1 -1175 -1 -1 45 c0 25 -1 554 -2 1175 l-2 1130 -235 0 -234 0 0
-230 0 -230 -235 -5 -236 -5 1 -232 0 -233 -236 0 -235 0 0 -235 0 -235 -235
0 -235 0 0 233 0 232 -235 5 -236 5 1 233 0 232 -235 0 -236 0 0 233 0 232
-235 3 -236 2 -1 -1142z m1883 -1445 c0 -148 4 -233 10 -234 6 -1 111 -2 235
-3 l225 -1 1 -220 c1 -121 2 -227 3 -235 1 -13 34 -15 234 -15 l232 0 1 -225
c1 -124 2 -230 3 -235 1 -6 81 -10 224 -9 122 0 227 -2 233 -4 9 -2 11 -69 10
-235 l-1 -232 -235 0 -234 0 -2 -225 c0 -124 -2 -230 -2 -235 -1 -7 -80 -11
-231 -10 -222 0 -230 -1 -233 -20 -2 -11 -3 -117 -3 -235 l1 -215 -226 0
c-124 0 -230 -1 -235 -2 -7 -2 -10 -85 -10 -233 1 -199 -1 -231 -15 -234 -8
-2 -113 -4 -232 -4 -155 0 -218 3 -220 11 -3 7 -4 112 -4 235 1 142 -2 222 -9
223 -5 1 -111 2 -235 3 l-225 1 -1 220 c-1 121 -2 227 -3 235 -1 13 -34 15
-234 15 l-234 -1 1 236 1 235 -225 1 c-124 1 -230 2 -236 3 -8 1 -11 68 -10
233 l1 233 233 0 c148 0 232 4 233 10 1 5 2 111 3 235 l1 225 232 0 c128 0
234 2 234 5 1 3 2 109 3 235 l1 230 235 0 235 1 1 224 c1 124 2 230 3 236 1 8
67 11 233 10 l233 -1 0 -232z"/>
<path d="M4887 5815 c-2 -5 -3 -110 -3 -232 1 -144 -2 -223 -9 -224 -5 -1
-107 -3 -225 -4 -118 -1 -220 -3 -225 -4 -7 -1 -11 -81 -11 -234 l0 -232 236
0 235 0 0 -235 0 -235 235 0 235 0 0 235 0 235 233 0 c127 0 233 2 233 5 1 3
3 107 4 233 1 155 -2 227 -9 228 -6 1 -108 2 -228 3 -119 0 -220 5 -225 9 -4
5 -8 111 -8 235 l0 227 -232 0 c-154 1 -234 -3 -236 -10z"/>
</g>
</svg>
