<?xml version="1.0" encoding="UTF-8" standalone="no"?>

<svg width="290" height="290" viewBox="0 0 77 77" version="1.1" xmlns="http://www.w3.org/2000/svg">
  <path style="fill:#60a3bc;" d="m 22.567403,36.107847 v 4.513479 H 13.540442 V 36.107847 Z M 9.0269616,45.134805 V 40.621326 H 27.080883 v 4.513479 z M 4.5134834,49.648284 V 45.134805 H 31.594366 v 4.513479 z M 0,54.161763 v -4.513479 h 36.107845 v 4.513479 z M 27.080883,31.594364 v 4.513479 H 9.0269616 v -4.513479 z m 4.51348,-4.513479 v 4.513479 H 4.5134791 v -4.513479 z m 4.513481,-4.513479 v 4.513479 H 0 v -4.513479 z m 27.080881,13.540437 v 4.513479 h -9.026961 v -4.513479 z m -13.540441,9.026958 v -4.513479 h 18.053921 v 4.513479 z m -4.51348,4.513479 v -4.513479 h 27.080884 v 4.513479 z m -4.513481,4.513479 V 49.64828 h 36.107844 v 4.513479 z m 27.080882,-22.5674 v 4.513479 H 49.648284 v -4.513479 z m 4.51348,-4.513479 v 4.513479 H 45.134801 V 27.08088 Z m 4.513481,-4.513479 V 27.08088 H 40.621322 V 22.567401 Z M 36.107845,54.161767 h 4.513479 v 9.026958 h -4.513479 z m 9.026958,13.540441 H 40.621324 V 49.648284 h 4.513479 z m 4.513479,4.513483 h -4.513479 v -27.08089 h 4.513479 z m 4.51348,4.51348 h -4.51348 V 40.621326 h 4.51348 z m -22.5674,-27.080887 h 4.513479 v 18.053924 h -4.513479 z m -4.513479,-4.513479 h 4.513479 v 27.080886 h -4.513479 z m -4.513479,-4.513479 h 4.513479 V 76.729171 H 22.567404 Z M 36.107847,13.540443 h 4.513479 v 9.026958 h -4.513479 z m 9.026958,13.540442 H 40.621326 V 9.02696 h 4.513479 z m 4.51348,4.513479 h -4.51348 V 4.513479 h 4.51348 z m 4.513479,4.513479 H 49.648285 V 0 h 4.513479 z M 31.594364,9.02696 h 4.513479 V 27.080885 H 31.594364 Z M 27.080885,4.513482 h 4.513479 V 31.594364 H 27.080885 Z M 22.567406,1e-6 h 4.513479 v 36.107842 h -4.513479 z"/>
  <path style="fill:#60a3bc;" d="m 36.107792,40.621212 h 4.513425 v 4.513425 h -4.513425 z m 0,-9.026849 h 4.513425 v 4.513421 h -4.513425 z m -4.513428,4.513431 h 13.540271 v 4.513422 H 31.594364 Z"/>
</svg>
