<?xml version="1.0" encoding="UTF-8" standalone="no"?>
<svg
   xmlns:dc="http://purl.org/dc/elements/1.1/"
   xmlns:cc="http://creativecommons.org/ns#"
   xmlns:rdf="http://www.w3.org/1999/02/22-rdf-syntax-ns#"
   xmlns:svg="http://www.w3.org/2000/svg"
   xmlns="http://www.w3.org/2000/svg"
   xmlns:sodipodi="http://sodipodi.sourceforge.net/DTD/sodipodi-0.dtd"
   xmlns:inkscape="http://www.inkscape.org/namespaces/inkscape"
   width="210mm"
   height="297mm"
   viewBox="0 0 210 297"
   version="1.1"
   id="svg8"
   inkscape:version="1.0.1 (1.0.1+r74)"
   sodipodi:docname="logo-opaque.svg">
  <defs
     id="defs2" />
  <sodipodi:namedview
     id="base"
     pagecolor="#ffffff"
     bordercolor="#666666"
     borderopacity="1.0"
     inkscape:pageopacity="0.0"
     inkscape:pageshadow="2"
     inkscape:zoom="0.47"
     inkscape:cx="-62.765957"
     inkscape:cy="270.0304"
     inkscape:document-units="mm"
     inkscape:current-layer="g38"
     inkscape:document-rotation="0"
     showgrid="false"
     inkscape:window-width="1516"
     inkscape:window-height="970"
     inkscape:window-x="96"
     inkscape:window-y="70"
     inkscape:window-maximized="0" />
  <metadata
     id="metadata5">
    <rdf:RDF>
      <cc:Work
         rdf:about="">
        <dc:format>image/svg+xml</dc:format>
        <dc:type
           rdf:resource="http://purl.org/dc/dcmitype/StillImage" />
        <dc:title></dc:title>
      </cc:Work>
    </rdf:RDF>
  </metadata>
  <g
     inkscape:label="Layer 1"
     inkscape:groupmode="layer"
     id="layer1"
     style="display:inline">
    <g
       id="g38"
       transform="translate(52.415503,108.89034)">
      <g
         inkscape:label="black vim"
         id="layer1-3"
         inkscape:export-xdpi="299.99997"
         inkscape:export-ydpi="299.99997">
        <g
           aria-label="vim"
           id="text835"
           style="font-style:normal;font-weight:normal;font-size:10.5833px;line-height:1.25;font-family:sans-serif;fill:#ffffff;fill-opacity:1;stroke:none;stroke-width:0.265;stroke-miterlimit:4;stroke-dasharray:none">
          <path
             d="m 22.614458,12.101673 q 1.834445,1.093612 1.834445,2.328335 0,0.705556 -0.705556,1.940279 l -7.302505,12.52362 q -0.352778,0.599722 -1.128889,1.093612 -0.776112,0.458611 -1.552223,0.458611 -0.740834,0 -1.44639,-0.352778 -0.670279,-0.388056 -0.952501,-0.776112 l -0.3175,-0.388055 -7.3377829,-12.558898 q -0.705556,-1.164167 -0.705556,-1.905001 0,-1.270001 1.8344457,-2.363613 1.3405564,-0.776111 2.1166681,-0.776111 0.7761116,0 1.1994452,0.493889 0.4586114,0.458611 0.9525006,1.411112 l 4.6213923,8.890006 4.621392,-8.890006 q 0.388056,-0.670278 0.564445,-0.952501 0.211666,-0.3175 0.635,-0.599722 0.423334,-0.317501 1.12889,-0.317501 0.705556,0 1.940279,0.740834 z"
             style="font-style:normal;font-variant:normal;font-weight:normal;font-stretch:normal;font-size:35.2778px;font-family:'Fredoka One';-inkscape-font-specification:'Fredoka One, Normal';font-variant-ligatures:normal;font-variant-caps:normal;font-variant-numeric:normal;font-variant-east-asian:normal;fill:#ffffff;fill-opacity:1;stroke-width:0.265;stroke-miterlimit:4;stroke-dasharray:none"
             id="path857" />
          <path
             d="m 26.412884,14.782786 q 0,-0.811389 0.03528,-1.199445 0.07056,-0.423334 0.3175,-0.952501 0.493889,-0.917223 2.751669,-0.917223 1.693334,0 2.39889,0.599723 0.599723,0.493889 0.635001,1.516946 0.03528,0.352778 0.03528,1.023056 v 12.34723 q 0,0.81139 -0.07056,1.234723 -0.03528,0.388056 -0.3175,0.917223 -0.458612,0.917223 -2.716391,0.917223 -2.222502,0 -2.716391,-0.952501 -0.246944,-0.529167 -0.3175,-0.917222 -0.03528,-0.388056 -0.03528,-1.234723 z m 5.78556,-6.5263931 q -0.246945,0.4938892 -0.917223,0.705556 -0.670278,0.2116669 -1.799168,0.2116669 -1.093612,0 -1.76389,-0.2116669 -0.670278,-0.2116668 -0.952501,-0.7408338 -0.246944,-0.529167 -0.3175,-0.9172228 -0.03528,-0.4233336 -0.03528,-1.2347231 0,-0.8113894 0.03528,-1.1994452 0.07056,-0.4233336 0.3175,-0.9172229 0.493889,-0.9525006 2.751669,-0.9525006 2.222501,0 2.681113,0.9525006 0.282222,0.5291671 0.3175,0.9525007 0.07056,0.3880558 0.07056,1.1994452 0,0.8113895 -0.07056,1.2347231 -0.03528,0.3880558 -0.3175,0.9172228 z"
             style="font-style:normal;font-variant:normal;font-weight:normal;font-stretch:normal;font-size:35.2778px;font-family:'Fredoka One';-inkscape-font-specification:'Fredoka One, Normal';font-variant-ligatures:normal;font-variant-caps:normal;font-variant-numeric:normal;font-variant-east-asian:normal;fill:#ffffff;fill-opacity:1;stroke-width:0.265;stroke-miterlimit:4;stroke-dasharray:none"
             id="path859" />
          <path
             d="m 41.506822,14.147786 q 1.658056,-2.504724 3.986391,-2.504724 3.598336,0 5.362226,3.069169 0.388056,-0.529167 0.917223,-1.093612 0.564445,-0.599723 1.76389,-1.270001 1.199445,-0.705556 2.469446,-0.705556 2.822224,0 4.727225,2.187224 1.905002,2.151945 1.905002,7.161393 v 6.173616 q 0,0.811389 -0.07056,1.234723 -0.03528,0.388055 -0.3175,0.917222 -0.458612,0.952501 -2.716391,0.952501 -2.222501,0 -2.716391,-0.987778 -0.246944,-0.529167 -0.3175,-0.917223 -0.03528,-0.423334 -0.03528,-1.234723 v -6.173616 q 0,-3.069168 -2.187223,-3.069168 -1.234723,0 -1.693335,0.811389 -0.423333,0.81139 -0.423333,2.293057 v 6.173616 q 0,0.846667 -0.07056,1.234723 -0.03528,0.388055 -0.3175,0.917222 -0.493889,0.952501 -2.751669,0.952501 -2.222501,0 -2.71639,-0.987778 -0.246945,-0.529167 -0.317501,-0.917223 -0.03528,-0.423334 -0.03528,-1.234723 v -6.173616 q 0,-3.069168 -2.187224,-3.069168 -2.116668,0 -2.116668,3.069168 v 6.244171 q 0,0.81139 -0.07056,1.234723 -0.03528,0.388056 -0.3175,0.917223 -0.529167,0.917223 -2.751669,0.917223 -2.222501,0 -2.71639,-0.952501 Q 35.544856,28.788073 35.4743,28.400018 35.43902,28.011962 35.43902,27.165295 V 14.747508 q 0,-0.811389 0.03528,-1.199445 0.07056,-0.423333 0.352779,-0.917223 0.529167,-0.9525 2.504723,-0.9525 1.975557,0 2.57528,0.635 0.599723,0.635001 0.599723,1.834446 z"
             style="font-style:normal;font-variant:normal;font-weight:normal;font-stretch:normal;font-size:35.2778px;font-family:'Fredoka One';-inkscape-font-specification:'Fredoka One, Normal';font-variant-ligatures:normal;font-variant-caps:normal;font-variant-numeric:normal;font-variant-east-asian:normal;fill:#ffffff;fill-opacity:1;stroke-width:0.265;stroke-miterlimit:4;stroke-dasharray:none"
             id="path861" />
        </g>
      </g>
      <g
         id="layer2"
         inkscape:label="black o"
         inkscape:export-xdpi="299.99997"
         inkscape:export-ydpi="299.99997">
        <rect
           style="fill:#ffffff;fill-opacity:1;stroke:#ffffff;stroke-width:6.80519;stroke-linecap:round;stroke-linejoin:round;stroke-miterlimit:4;stroke-dasharray:none;stroke-opacity:1"
           id="rect838"
           width="19.194811"
           height="19.194813"
           x="67.679771"
           y="10.205255" />
      </g>
      <g
         id="layer3"
         inkscape:label="white o"
         inkscape:export-xdpi="299.99997"
         inkscape:export-ydpi="299.99997">
        <g
           aria-label="o"
           id="text855"
           style="font-style:normal;font-variant:normal;font-weight:normal;font-stretch:normal;font-size:35.2778px;line-height:1.25;font-family:'Fredoka One';-inkscape-font-specification:'Fredoka One, Normal';font-variant-ligatures:normal;font-variant-caps:normal;font-variant-numeric:normal;font-variant-east-asian:normal;fill:#323232;fill-opacity:1;stroke:none;stroke-width:0.265;stroke-miterlimit:4;stroke-dasharray:none">
          <path
             d="m 67.69932,19.958322 q 0,-4.233337 2.963336,-6.985005 2.963335,-2.751669 6.773337,-2.751669 3.810003,0 6.738061,2.751669 2.928057,2.716391 2.928057,6.949727 0,2.928057 -1.516945,5.221114 -1.516946,2.25778 -3.70417,3.351392 -2.151945,1.058334 -4.48028,1.058334 -2.328335,0 -4.515559,-1.12889 -2.187224,-1.164167 -3.704169,-3.386669 -1.481668,-2.257779 -1.481668,-5.080003 z m 7.373061,2.540001 q 1.128889,0.846668 2.293057,0.846668 1.164167,0 2.328335,-0.881945 1.164167,-0.881945 1.164167,-2.610558 0,-1.728612 -1.093612,-2.575279 -1.093612,-0.846668 -2.363612,-0.846668 -1.270001,0 -2.363613,0.881946 -1.093612,0.881945 -1.093612,2.610557 0,1.693334 1.12889,2.575279 z"
             style="font-style:normal;font-variant:normal;font-weight:normal;font-stretch:normal;font-size:35.2778px;font-family:'Fredoka One';-inkscape-font-specification:'Fredoka One, Normal';font-variant-ligatures:normal;font-variant-caps:normal;font-variant-numeric:normal;font-variant-east-asian:normal;fill:#323232;fill-opacity:1;stroke-width:0.265;stroke-miterlimit:4;stroke-dasharray:none"
             id="path864" />
        </g>
      </g>
    </g>
  </g>
</svg>
